<mxfile host="Electron" agent="Mozilla/5.0 (Windows NT 10.0; Win64; x64) AppleWebKit/537.36 (KHTML, like Gecko) draw.io/24.7.17 Chrome/128.0.6613.36 Electron/32.0.1 Safari/537.36" version="24.7.17">
  <diagram name="Page-1" id="AKvAxoffee9QTAg_mLCS">
    <mxGraphModel dx="1434" dy="844" grid="1" gridSize="10" guides="1" tooltips="1" connect="1" arrows="1" fold="1" page="1" pageScale="1" pageWidth="1600" pageHeight="900" math="0" shadow="0">
      <root>
        <mxCell id="0" />
        <mxCell id="1" parent="0" />
        <mxCell id="moEwpBCH9Sc0DnLOZuWS-11" style="edgeStyle=orthogonalEdgeStyle;rounded=0;orthogonalLoop=1;jettySize=auto;html=1;entryX=0.5;entryY=0;entryDx=0;entryDy=0;" parent="1" source="moEwpBCH9Sc0DnLOZuWS-1" target="moEwpBCH9Sc0DnLOZuWS-2" edge="1">
          <mxGeometry relative="1" as="geometry" />
        </mxCell>
        <mxCell id="moEwpBCH9Sc0DnLOZuWS-1" value="START" style="ellipse;whiteSpace=wrap;html=1;fontSize=10;" parent="1" vertex="1">
          <mxGeometry x="157.5" y="10" width="100" height="40" as="geometry" />
        </mxCell>
        <mxCell id="moEwpBCH9Sc0DnLOZuWS-10" style="edgeStyle=orthogonalEdgeStyle;rounded=0;orthogonalLoop=1;jettySize=auto;html=1;entryX=0.5;entryY=0;entryDx=0;entryDy=0;" parent="1" source="moEwpBCH9Sc0DnLOZuWS-2" target="moEwpBCH9Sc0DnLOZuWS-4" edge="1">
          <mxGeometry relative="1" as="geometry" />
        </mxCell>
        <mxCell id="moEwpBCH9Sc0DnLOZuWS-2" value="Declarations:&lt;div style=&quot;font-size: 10px;&quot;&gt;list categories,values&lt;/div&gt;&lt;div style=&quot;font-size: 10px;&quot;&gt;list questions&lt;/div&gt;&lt;div style=&quot;font-size: 10px;&quot;&gt;list answers&lt;/div&gt;&lt;div style=&quot;font-size: 10px;&quot;&gt;list playerScores&lt;/div&gt;&lt;div style=&quot;font-size: 10px;&quot;&gt;num totalQuestionsAnswered&lt;/div&gt;&lt;div style=&quot;font-size: 10px;&quot;&gt;num totalAvailableQuestions&lt;/div&gt;&lt;div style=&quot;font-size: 10px;&quot;&gt;&lt;br style=&quot;font-size: 10px;&quot;&gt;&lt;/div&gt;&lt;div style=&quot;font-size: 10px;&quot;&gt;playerScores = 0&lt;/div&gt;" style="rounded=0;whiteSpace=wrap;html=1;fontSize=10;" parent="1" vertex="1">
          <mxGeometry x="135" y="80" width="145" height="120" as="geometry" />
        </mxCell>
        <mxCell id="moEwpBCH9Sc0DnLOZuWS-86" style="edgeStyle=orthogonalEdgeStyle;rounded=0;orthogonalLoop=1;jettySize=auto;html=1;entryX=0.5;entryY=0;entryDx=0;entryDy=0;" parent="1" source="moEwpBCH9Sc0DnLOZuWS-3" target="moEwpBCH9Sc0DnLOZuWS-85" edge="1">
          <mxGeometry relative="1" as="geometry" />
        </mxCell>
        <mxCell id="moEwpBCH9Sc0DnLOZuWS-3" value="totalQuestionsAnswered &amp;lt;&amp;nbsp;&lt;div&gt;totalAvailableQuestions&lt;/div&gt;" style="rhombus;whiteSpace=wrap;html=1;fontSize=10;" parent="1" vertex="1">
          <mxGeometry x="122.5" y="410" width="170" height="160" as="geometry" />
        </mxCell>
        <mxCell id="moEwpBCH9Sc0DnLOZuWS-9" style="edgeStyle=orthogonalEdgeStyle;rounded=0;orthogonalLoop=1;jettySize=auto;html=1;entryX=0.5;entryY=0;entryDx=0;entryDy=0;" parent="1" source="moEwpBCH9Sc0DnLOZuWS-4" target="moEwpBCH9Sc0DnLOZuWS-7" edge="1">
          <mxGeometry relative="1" as="geometry" />
        </mxCell>
        <mxCell id="moEwpBCH9Sc0DnLOZuWS-4" value="input categories&lt;div style=&quot;font-size: 10px;&quot;&gt;input questions&lt;/div&gt;&lt;div style=&quot;font-size: 10px;&quot;&gt;input answers&lt;/div&gt;" style="shape=parallelogram;perimeter=parallelogramPerimeter;whiteSpace=wrap;html=1;fixedSize=1;fontSize=10;" parent="1" vertex="1">
          <mxGeometry x="142.5" y="230" width="130" height="50" as="geometry" />
        </mxCell>
        <mxCell id="moEwpBCH9Sc0DnLOZuWS-8" style="edgeStyle=orthogonalEdgeStyle;rounded=0;orthogonalLoop=1;jettySize=auto;html=1;" parent="1" source="moEwpBCH9Sc0DnLOZuWS-7" target="moEwpBCH9Sc0DnLOZuWS-3" edge="1">
          <mxGeometry relative="1" as="geometry" />
        </mxCell>
        <mxCell id="moEwpBCH9Sc0DnLOZuWS-7" value="&lt;font size=&quot;1&quot;&gt;Calculate:&lt;/font&gt;&lt;div&gt;&lt;font size=&quot;1&quot;&gt;totalAvailableQuestion =&amp;nbsp;&lt;/font&gt;&lt;/div&gt;&lt;div&gt;&lt;font size=&quot;1&quot;&gt;questions.Count&lt;/font&gt;&lt;/div&gt;" style="rounded=0;whiteSpace=wrap;html=1;" parent="1" vertex="1">
          <mxGeometry x="147.5" y="300" width="120" height="60" as="geometry" />
        </mxCell>
        <mxCell id="moEwpBCH9Sc0DnLOZuWS-18" value="" style="swimlane;fontStyle=0;childLayout=stackLayout;horizontal=1;startSize=10;horizontalStack=0;resizeParent=1;resizeParentMax=0;resizeLast=0;collapsible=1;marginBottom=0;whiteSpace=wrap;html=1;" parent="1" vertex="1">
          <mxGeometry x="360" y="470" width="140" height="40" as="geometry" />
        </mxCell>
        <mxCell id="moEwpBCH9Sc0DnLOZuWS-19" value="gameLoop()" style="text;strokeColor=none;fillColor=none;align=center;verticalAlign=middle;spacingLeft=4;spacingRight=4;overflow=hidden;points=[[0,0.5],[1,0.5]];portConstraint=eastwest;rotatable=0;whiteSpace=wrap;html=1;" parent="moEwpBCH9Sc0DnLOZuWS-18" vertex="1">
          <mxGeometry y="10" width="140" height="30" as="geometry" />
        </mxCell>
        <mxCell id="moEwpBCH9Sc0DnLOZuWS-23" style="edgeStyle=orthogonalEdgeStyle;rounded=0;orthogonalLoop=1;jettySize=auto;html=1;entryX=0;entryY=0.233;entryDx=0;entryDy=0;entryPerimeter=0;" parent="1" source="moEwpBCH9Sc0DnLOZuWS-3" target="moEwpBCH9Sc0DnLOZuWS-19" edge="1">
          <mxGeometry relative="1" as="geometry" />
        </mxCell>
        <mxCell id="moEwpBCH9Sc0DnLOZuWS-25" value="" style="endArrow=none;html=1;rounded=0;" parent="1" edge="1">
          <mxGeometry width="50" height="50" relative="1" as="geometry">
            <mxPoint x="420" y="470" as="sourcePoint" />
            <mxPoint x="420" y="390" as="targetPoint" />
            <Array as="points">
              <mxPoint x="420" y="430" />
            </Array>
          </mxGeometry>
        </mxCell>
        <mxCell id="moEwpBCH9Sc0DnLOZuWS-26" value="" style="endArrow=classic;html=1;rounded=0;" parent="1" edge="1">
          <mxGeometry width="50" height="50" relative="1" as="geometry">
            <mxPoint x="420" y="390" as="sourcePoint" />
            <mxPoint x="210" y="390" as="targetPoint" />
          </mxGeometry>
        </mxCell>
        <mxCell id="moEwpBCH9Sc0DnLOZuWS-34" style="edgeStyle=orthogonalEdgeStyle;rounded=0;orthogonalLoop=1;jettySize=auto;html=1;entryX=0.5;entryY=0;entryDx=0;entryDy=0;" parent="1" source="moEwpBCH9Sc0DnLOZuWS-27" target="moEwpBCH9Sc0DnLOZuWS-28" edge="1">
          <mxGeometry relative="1" as="geometry" />
        </mxCell>
        <mxCell id="moEwpBCH9Sc0DnLOZuWS-27" value="displayBoard()" style="ellipse;whiteSpace=wrap;html=1;" parent="1" vertex="1">
          <mxGeometry x="1050" y="25" width="120" height="40" as="geometry" />
        </mxCell>
        <mxCell id="moEwpBCH9Sc0DnLOZuWS-35" style="edgeStyle=orthogonalEdgeStyle;rounded=0;orthogonalLoop=1;jettySize=auto;html=1;entryX=0.5;entryY=0;entryDx=0;entryDy=0;" parent="1" source="moEwpBCH9Sc0DnLOZuWS-28" target="moEwpBCH9Sc0DnLOZuWS-29" edge="1">
          <mxGeometry relative="1" as="geometry" />
        </mxCell>
        <mxCell id="moEwpBCH9Sc0DnLOZuWS-28" value="num categoriesCount&lt;div&gt;= categories.Count&lt;/div&gt;" style="rounded=0;whiteSpace=wrap;html=1;" parent="1" vertex="1">
          <mxGeometry x="1045" y="105" width="130" height="60" as="geometry" />
        </mxCell>
        <mxCell id="moEwpBCH9Sc0DnLOZuWS-33" style="edgeStyle=orthogonalEdgeStyle;rounded=0;orthogonalLoop=1;jettySize=auto;html=1;entryX=0.5;entryY=0;entryDx=0;entryDy=0;" parent="1" source="moEwpBCH9Sc0DnLOZuWS-29" target="moEwpBCH9Sc0DnLOZuWS-32" edge="1">
          <mxGeometry relative="1" as="geometry" />
        </mxCell>
        <mxCell id="moEwpBCH9Sc0DnLOZuWS-36" style="edgeStyle=orthogonalEdgeStyle;rounded=0;orthogonalLoop=1;jettySize=auto;html=1;entryX=0;entryY=0.5;entryDx=0;entryDy=0;" parent="1" source="moEwpBCH9Sc0DnLOZuWS-29" target="moEwpBCH9Sc0DnLOZuWS-30" edge="1">
          <mxGeometry relative="1" as="geometry" />
        </mxCell>
        <mxCell id="moEwpBCH9Sc0DnLOZuWS-29" value="catagoriesCount &amp;gt;&lt;div&gt;0&lt;/div&gt;" style="rhombus;whiteSpace=wrap;html=1;" parent="1" vertex="1">
          <mxGeometry x="1030" y="250" width="160" height="90" as="geometry" />
        </mxCell>
        <mxCell id="moEwpBCH9Sc0DnLOZuWS-37" style="edgeStyle=orthogonalEdgeStyle;rounded=0;orthogonalLoop=1;jettySize=auto;html=1;entryX=0.5;entryY=1;entryDx=0;entryDy=0;" parent="1" source="moEwpBCH9Sc0DnLOZuWS-30" target="moEwpBCH9Sc0DnLOZuWS-31" edge="1">
          <mxGeometry relative="1" as="geometry" />
        </mxCell>
        <mxCell id="moEwpBCH9Sc0DnLOZuWS-30" value="Output Category" style="shape=parallelogram;perimeter=parallelogramPerimeter;whiteSpace=wrap;html=1;fixedSize=1;" parent="1" vertex="1">
          <mxGeometry x="1230" y="265" width="120" height="60" as="geometry" />
        </mxCell>
        <mxCell id="moEwpBCH9Sc0DnLOZuWS-38" style="edgeStyle=orthogonalEdgeStyle;rounded=0;orthogonalLoop=1;jettySize=auto;html=1;" parent="1" source="moEwpBCH9Sc0DnLOZuWS-31" edge="1">
          <mxGeometry relative="1" as="geometry">
            <mxPoint x="1120" y="205" as="targetPoint" />
          </mxGeometry>
        </mxCell>
        <mxCell id="moEwpBCH9Sc0DnLOZuWS-31" value="&lt;div&gt;categoriesCount =&lt;/div&gt;categoriesCount - 1" style="rounded=0;whiteSpace=wrap;html=1;" parent="1" vertex="1">
          <mxGeometry x="1230" y="175" width="120" height="60" as="geometry" />
        </mxCell>
        <mxCell id="moEwpBCH9Sc0DnLOZuWS-32" value="END" style="ellipse;whiteSpace=wrap;html=1;" parent="1" vertex="1">
          <mxGeometry x="1050" y="385" width="120" height="40" as="geometry" />
        </mxCell>
        <mxCell id="moEwpBCH9Sc0DnLOZuWS-39" style="edgeStyle=orthogonalEdgeStyle;rounded=0;orthogonalLoop=1;jettySize=auto;html=1;exitX=0.5;exitY=1;exitDx=0;exitDy=0;" parent="1" source="moEwpBCH9Sc0DnLOZuWS-32" target="moEwpBCH9Sc0DnLOZuWS-32" edge="1">
          <mxGeometry relative="1" as="geometry" />
        </mxCell>
        <mxCell id="moEwpBCH9Sc0DnLOZuWS-72" style="edgeStyle=orthogonalEdgeStyle;rounded=0;orthogonalLoop=1;jettySize=auto;html=1;" parent="1" source="moEwpBCH9Sc0DnLOZuWS-44" target="moEwpBCH9Sc0DnLOZuWS-45" edge="1">
          <mxGeometry relative="1" as="geometry" />
        </mxCell>
        <mxCell id="moEwpBCH9Sc0DnLOZuWS-44" value="isCorrectResponse()" style="ellipse;whiteSpace=wrap;html=1;" parent="1" vertex="1">
          <mxGeometry x="1035" y="475" width="150" height="50" as="geometry" />
        </mxCell>
        <mxCell id="moEwpBCH9Sc0DnLOZuWS-50" style="edgeStyle=orthogonalEdgeStyle;rounded=0;orthogonalLoop=1;jettySize=auto;html=1;entryX=0.5;entryY=0;entryDx=0;entryDy=0;" parent="1" source="moEwpBCH9Sc0DnLOZuWS-45" target="moEwpBCH9Sc0DnLOZuWS-46" edge="1">
          <mxGeometry relative="1" as="geometry" />
        </mxCell>
        <mxCell id="moEwpBCH9Sc0DnLOZuWS-45" value="&lt;div&gt;num questionValue&lt;br&gt;&lt;div&gt;string answer&lt;/div&gt;&lt;div&gt;string playerAnswer&lt;/div&gt;&lt;div&gt;num playerPoints&lt;/div&gt;&lt;/div&gt;" style="rounded=0;whiteSpace=wrap;html=1;" parent="1" vertex="1">
          <mxGeometry x="1050" y="565" width="120" height="80" as="geometry" />
        </mxCell>
        <mxCell id="moEwpBCH9Sc0DnLOZuWS-51" style="edgeStyle=orthogonalEdgeStyle;rounded=0;orthogonalLoop=1;jettySize=auto;html=1;entryX=1;entryY=0.5;entryDx=0;entryDy=0;" parent="1" source="moEwpBCH9Sc0DnLOZuWS-46" target="moEwpBCH9Sc0DnLOZuWS-47" edge="1">
          <mxGeometry relative="1" as="geometry" />
        </mxCell>
        <mxCell id="moEwpBCH9Sc0DnLOZuWS-52" style="edgeStyle=orthogonalEdgeStyle;rounded=0;orthogonalLoop=1;jettySize=auto;html=1;entryX=0;entryY=0.5;entryDx=0;entryDy=0;" parent="1" source="moEwpBCH9Sc0DnLOZuWS-46" target="moEwpBCH9Sc0DnLOZuWS-48" edge="1">
          <mxGeometry relative="1" as="geometry" />
        </mxCell>
        <mxCell id="moEwpBCH9Sc0DnLOZuWS-46" value="answer == playerAnswer" style="rhombus;whiteSpace=wrap;html=1;" parent="1" vertex="1">
          <mxGeometry x="1030" y="675" width="160" height="80" as="geometry" />
        </mxCell>
        <mxCell id="moEwpBCH9Sc0DnLOZuWS-47" value="&lt;div&gt;playerPoints =&lt;/div&gt;playerPoints - questionValue" style="rounded=0;whiteSpace=wrap;html=1;" parent="1" vertex="1">
          <mxGeometry x="880" y="685" width="120" height="60" as="geometry" />
        </mxCell>
        <mxCell id="moEwpBCH9Sc0DnLOZuWS-48" value="playerPoints = playerPoints + questionValue&amp;nbsp;" style="rounded=0;whiteSpace=wrap;html=1;" parent="1" vertex="1">
          <mxGeometry x="1220" y="685" width="120" height="60" as="geometry" />
        </mxCell>
        <mxCell id="moEwpBCH9Sc0DnLOZuWS-49" value="END" style="ellipse;whiteSpace=wrap;html=1;" parent="1" vertex="1">
          <mxGeometry x="1050" y="785" width="120" height="40" as="geometry" />
        </mxCell>
        <mxCell id="moEwpBCH9Sc0DnLOZuWS-53" value="" style="endArrow=none;html=1;rounded=0;" parent="1" edge="1">
          <mxGeometry width="50" height="50" relative="1" as="geometry">
            <mxPoint x="940" y="805" as="sourcePoint" />
            <mxPoint x="940" y="745" as="targetPoint" />
          </mxGeometry>
        </mxCell>
        <mxCell id="moEwpBCH9Sc0DnLOZuWS-54" value="" style="endArrow=none;html=1;rounded=0;" parent="1" edge="1">
          <mxGeometry width="50" height="50" relative="1" as="geometry">
            <mxPoint x="1279.5" y="805" as="sourcePoint" />
            <mxPoint x="1279.5" y="745" as="targetPoint" />
          </mxGeometry>
        </mxCell>
        <mxCell id="moEwpBCH9Sc0DnLOZuWS-55" value="" style="endArrow=classic;html=1;rounded=0;entryX=0;entryY=0.5;entryDx=0;entryDy=0;" parent="1" target="moEwpBCH9Sc0DnLOZuWS-49" edge="1">
          <mxGeometry width="50" height="50" relative="1" as="geometry">
            <mxPoint x="940" y="805" as="sourcePoint" />
            <mxPoint x="990" y="755" as="targetPoint" />
          </mxGeometry>
        </mxCell>
        <mxCell id="moEwpBCH9Sc0DnLOZuWS-56" value="" style="endArrow=classic;html=1;rounded=0;entryX=1;entryY=0.5;entryDx=0;entryDy=0;" parent="1" target="moEwpBCH9Sc0DnLOZuWS-49" edge="1">
          <mxGeometry width="50" height="50" relative="1" as="geometry">
            <mxPoint x="1280" y="804.5" as="sourcePoint" />
            <mxPoint x="1180" y="804.5" as="targetPoint" />
          </mxGeometry>
        </mxCell>
        <mxCell id="moEwpBCH9Sc0DnLOZuWS-58" value="NO" style="text;html=1;align=center;verticalAlign=middle;resizable=0;points=[];autosize=1;strokeColor=none;fillColor=none;" parent="1" vertex="1">
          <mxGeometry x="1000" y="685" width="40" height="30" as="geometry" />
        </mxCell>
        <mxCell id="moEwpBCH9Sc0DnLOZuWS-59" value="YES" style="text;html=1;align=center;verticalAlign=middle;resizable=0;points=[];autosize=1;strokeColor=none;fillColor=none;" parent="1" vertex="1">
          <mxGeometry x="1175" y="685" width="50" height="30" as="geometry" />
        </mxCell>
        <mxCell id="moEwpBCH9Sc0DnLOZuWS-60" value="YES" style="text;html=1;align=center;verticalAlign=middle;resizable=0;points=[];autosize=1;strokeColor=none;fillColor=none;" parent="1" vertex="1">
          <mxGeometry x="1180" y="265" width="50" height="30" as="geometry" />
        </mxCell>
        <mxCell id="moEwpBCH9Sc0DnLOZuWS-61" value="YES" style="text;html=1;align=center;verticalAlign=middle;resizable=0;points=[];autosize=1;strokeColor=none;fillColor=none;" parent="1" vertex="1">
          <mxGeometry x="292.5" y="460" width="50" height="30" as="geometry" />
        </mxCell>
        <mxCell id="moEwpBCH9Sc0DnLOZuWS-78" style="edgeStyle=orthogonalEdgeStyle;rounded=0;orthogonalLoop=1;jettySize=auto;html=1;entryX=0.5;entryY=0;entryDx=0;entryDy=0;" parent="1" source="moEwpBCH9Sc0DnLOZuWS-62" target="moEwpBCH9Sc0DnLOZuWS-66" edge="1">
          <mxGeometry relative="1" as="geometry" />
        </mxCell>
        <mxCell id="moEwpBCH9Sc0DnLOZuWS-62" value="gameLoop()" style="ellipse;whiteSpace=wrap;html=1;" parent="1" vertex="1">
          <mxGeometry x="690" y="25" width="120" height="40" as="geometry" />
        </mxCell>
        <mxCell id="moEwpBCH9Sc0DnLOZuWS-79" style="edgeStyle=orthogonalEdgeStyle;rounded=0;orthogonalLoop=1;jettySize=auto;html=1;entryX=0.5;entryY=0;entryDx=0;entryDy=0;" parent="1" source="moEwpBCH9Sc0DnLOZuWS-66" target="moEwpBCH9Sc0DnLOZuWS-69" edge="1">
          <mxGeometry relative="1" as="geometry" />
        </mxCell>
        <mxCell id="moEwpBCH9Sc0DnLOZuWS-66" value="&lt;div&gt;displayBoard()&lt;br&gt;&lt;/div&gt;input chosenCategory&lt;div&gt;input chosenValue&lt;/div&gt;" style="shape=parallelogram;perimeter=parallelogramPerimeter;whiteSpace=wrap;html=1;fixedSize=1;" parent="1" vertex="1">
          <mxGeometry x="670" y="95" width="160" height="50" as="geometry" />
        </mxCell>
        <mxCell id="moEwpBCH9Sc0DnLOZuWS-80" style="edgeStyle=orthogonalEdgeStyle;rounded=0;orthogonalLoop=1;jettySize=auto;html=1;entryX=0.5;entryY=0;entryDx=0;entryDy=0;" parent="1" source="moEwpBCH9Sc0DnLOZuWS-69" target="moEwpBCH9Sc0DnLOZuWS-70" edge="1">
          <mxGeometry relative="1" as="geometry" />
        </mxCell>
        <mxCell id="moEwpBCH9Sc0DnLOZuWS-69" value="&lt;div&gt;declare&lt;/div&gt;string currentQuestion&lt;div&gt;string playerAnswer&lt;/div&gt;" style="rounded=0;whiteSpace=wrap;html=1;" parent="1" vertex="1">
          <mxGeometry x="675" y="175" width="150" height="50" as="geometry" />
        </mxCell>
        <mxCell id="moEwpBCH9Sc0DnLOZuWS-81" style="edgeStyle=orthogonalEdgeStyle;rounded=0;orthogonalLoop=1;jettySize=auto;html=1;entryX=0.5;entryY=0;entryDx=0;entryDy=0;" parent="1" source="moEwpBCH9Sc0DnLOZuWS-70" target="moEwpBCH9Sc0DnLOZuWS-73" edge="1">
          <mxGeometry relative="1" as="geometry" />
        </mxCell>
        <mxCell id="moEwpBCH9Sc0DnLOZuWS-70" value="&lt;div&gt;OUTPUT question&lt;br&gt;&lt;/div&gt;INPUT playerAnswer" style="shape=parallelogram;perimeter=parallelogramPerimeter;whiteSpace=wrap;html=1;fixedSize=1;" parent="1" vertex="1">
          <mxGeometry x="660" y="250" width="180" height="40" as="geometry" />
        </mxCell>
        <mxCell id="moEwpBCH9Sc0DnLOZuWS-82" style="edgeStyle=orthogonalEdgeStyle;rounded=0;orthogonalLoop=1;jettySize=auto;html=1;entryX=0.5;entryY=0;entryDx=0;entryDy=0;" parent="1" source="moEwpBCH9Sc0DnLOZuWS-73" target="moEwpBCH9Sc0DnLOZuWS-77" edge="1">
          <mxGeometry relative="1" as="geometry" />
        </mxCell>
        <mxCell id="moEwpBCH9Sc0DnLOZuWS-73" value="" style="swimlane;fontStyle=0;childLayout=stackLayout;horizontal=1;startSize=20;horizontalStack=0;resizeParent=1;resizeParentMax=0;resizeLast=0;collapsible=1;marginBottom=0;whiteSpace=wrap;html=1;" parent="1" vertex="1">
          <mxGeometry x="680" y="315" width="140" height="50" as="geometry" />
        </mxCell>
        <mxCell id="moEwpBCH9Sc0DnLOZuWS-74" value="isCorrectResponse()" style="text;strokeColor=none;fillColor=none;align=center;verticalAlign=middle;spacingLeft=4;spacingRight=4;overflow=hidden;points=[[0,0.5],[1,0.5]];portConstraint=eastwest;rotatable=0;whiteSpace=wrap;html=1;" parent="moEwpBCH9Sc0DnLOZuWS-73" vertex="1">
          <mxGeometry y="20" width="140" height="30" as="geometry" />
        </mxCell>
        <mxCell id="moEwpBCH9Sc0DnLOZuWS-84" style="edgeStyle=orthogonalEdgeStyle;rounded=0;orthogonalLoop=1;jettySize=auto;html=1;entryX=0.5;entryY=0;entryDx=0;entryDy=0;" parent="1" source="moEwpBCH9Sc0DnLOZuWS-77" target="moEwpBCH9Sc0DnLOZuWS-83" edge="1">
          <mxGeometry relative="1" as="geometry" />
        </mxCell>
        <mxCell id="moEwpBCH9Sc0DnLOZuWS-77" value="totalQuestionsAnswered =&amp;nbsp;&lt;div&gt;totalQuestionsAnswered + 1&amp;nbsp;&lt;/div&gt;" style="rounded=0;whiteSpace=wrap;html=1;" parent="1" vertex="1">
          <mxGeometry x="665" y="400" width="170" height="60" as="geometry" />
        </mxCell>
        <mxCell id="moEwpBCH9Sc0DnLOZuWS-83" value="END" style="ellipse;whiteSpace=wrap;html=1;" parent="1" vertex="1">
          <mxGeometry x="690" y="485" width="120" height="40" as="geometry" />
        </mxCell>
        <mxCell id="moEwpBCH9Sc0DnLOZuWS-85" value="Calculate:&lt;div&gt;Determine Highest Player Points&lt;/div&gt;&lt;div&gt;declare:&lt;/div&gt;&lt;div&gt;string winner&lt;/div&gt;" style="rounded=0;whiteSpace=wrap;html=1;" parent="1" vertex="1">
          <mxGeometry x="101.25" y="610" width="212.5" height="80" as="geometry" />
        </mxCell>
        <mxCell id="moEwpBCH9Sc0DnLOZuWS-87" value="Output: winner + &quot;is the winner!&quot;" style="shape=parallelogram;perimeter=parallelogramPerimeter;whiteSpace=wrap;html=1;fixedSize=1;" parent="1" vertex="1">
          <mxGeometry x="100" y="730" width="227.5" height="65" as="geometry" />
        </mxCell>
        <mxCell id="moEwpBCH9Sc0DnLOZuWS-88" style="edgeStyle=orthogonalEdgeStyle;rounded=0;orthogonalLoop=1;jettySize=auto;html=1;entryX=0.47;entryY=0;entryDx=0;entryDy=0;entryPerimeter=0;" parent="1" source="moEwpBCH9Sc0DnLOZuWS-85" target="moEwpBCH9Sc0DnLOZuWS-87" edge="1">
          <mxGeometry relative="1" as="geometry" />
        </mxCell>
      </root>
    </mxGraphModel>
  </diagram>
</mxfile>
